<?xml version="1.0" encoding="UTF-8"?>
<!DOCTYPE svg PUBLIC "-//W3C//DTD SVG 1.1//EN" "http://www.w3.org/Graphics/SVG/1.1/DTD/svg11.dtd">
<!-- Creator: CorelDRAW 2019 (64-Bit) -->
<svg xmlns="http://www.w3.org/2000/svg" xml:space="preserve" width="95px" height="95px" version="1.1" style="shape-rendering:geometricPrecision; text-rendering:geometricPrecision; image-rendering:optimizeQuality; fill-rule:evenodd; clip-rule:evenodd"
viewBox="0 0 4.37 4.372"
 xmlns:xlink="http://www.w3.org/1999/xlink"
 xmlns:xodm="http://www.corel.com/coreldraw/odm/2003">
 <defs>
  <style type="text/css">
   <![CDATA[
    .fil0 {fill:black}
   ]]>
  </style>
 </defs>
 <g id="Слой_x0020_1">
  <metadata id="CorelCorpID_0Corel-Layer"/>
  <path class="fil0" d="M2.388 1.46c0.439,0.119 0.626,0.561 0.526,0.926 -0.121,0.441 -0.563,0.624 -0.914,0.533 -0.976,-0.253 -0.589,-1.722 0.388,-1.459zm1.362 0.966c0.015,-0.077 0.01,-0.289 0.019,-0.32 0.021,-0.067 0.176,-0.112 0.25,-0.15 0.367,-0.185 0.397,-0.149 0.31,-0.388 -0.09,-0.244 -0.127,-0.499 -0.297,-0.461 -0.127,0.027 -0.474,0.133 -0.571,0.131l-0.22 -0.28c0.001,-0.007 0.004,-0.02 0.006,-0.028 0.162,-0.61 0.369,-0.532 -0.127,-0.763 -0.224,-0.104 -0.299,-0.211 -0.431,0.013 -0.061,0.102 -0.189,0.37 -0.267,0.43 -0.017,0.005 -0.294,-0.004 -0.341,-0.007 -0.05,-0.067 -0.198,-0.413 -0.264,-0.527 -0.075,-0.131 -0.178,-0.061 -0.271,-0.024 -0.305,0.118 -0.489,0.107 -0.432,0.319 0.189,0.709 0.155,0.468 -0.123,0.777 -0.163,-0.063 -0.332,-0.118 -0.497,-0.174 -0.205,-0.07 -0.189,-0.022 -0.331,0.281 -0.152,0.329 -0.278,0.285 0.456,0.687 -0.006,0.047 -0.012,0.118 -0.015,0.169 -0.002,0.039 0.005,0.113 -0.001,0.148 -0.011,0.073 -0.17,0.117 -0.233,0.15 -0.386,0.2 -0.419,0.148 -0.328,0.39 0.095,0.25 0.126,0.503 0.294,0.469 0.122,-0.026 0.491,-0.137 0.57,-0.137 0.315,0.348 0.266,0.169 0.066,0.746 -0.072,0.208 -0.013,0.193 0.288,0.333 0.239,0.111 0.295,0.2 0.43,-0.03 0.063,-0.108 0.189,-0.347 0.263,-0.423 0.398,0.016 0.313,-0.049 0.452,0.241 0.123,0.256 0.16,0.419 0.319,0.363 0.485,-0.174 0.585,-0.153 0.524,-0.398l-0.12 -0.493 0.25 -0.24c0.709,0.179 0.598,0.386 0.83,-0.113 0.106,-0.23 0.204,-0.299 -0.021,-0.43 -0.143,-0.084 -0.298,-0.169 -0.437,-0.261z"/>
 </g>
</svg>
