<?xml version="1.0" encoding="UTF-8"?>
<!DOCTYPE svg PUBLIC "-//W3C//DTD SVG 1.1//EN" "http://www.w3.org/Graphics/SVG/1.1/DTD/svg11.dtd">
<!-- Creator: CorelDRAW 2019 (64-Bit) -->
<svg xmlns="http://www.w3.org/2000/svg" xml:space="preserve" width="134px" height="100px" version="1.1" style="shape-rendering:geometricPrecision; text-rendering:geometricPrecision; image-rendering:optimizeQuality; fill-rule:evenodd; clip-rule:evenodd"
viewBox="0 0 16.865 12.571"
 xmlns:xlink="http://www.w3.org/1999/xlink"
 xmlns:xodm="http://www.corel.com/coreldraw/odm/2003">
 <defs>
  <style type="text/css">
   <![CDATA[
    .fil0 {fill:black}
   ]]>
  </style>
 </defs>
 <g id="Слой_x0020_1">
  <metadata id="CorelCorpID_0Corel-Layer"/>
  <path class="fil0" d="M6.754 2.158c0,0.858 1.533,1.6 0,2.626 -1.233,-1.072 -1.803,-0.194 -2.479,-0.355 -0.874,-0.208 -0.071,-0.481 -1.648,-0.114 0,-1.106 0.431,-1.167 1.032,-2.063 0.51,0.269 0.712,0.235 1.313,0.375 0.252,-0.476 0.281,-0.591 0.281,-1.314 -1.055,-0.246 -1.098,-0.925 -2.415,0.399 -0.987,0.992 -2.502,1.913 -2.838,3.354 0.394,0.587 2.117,1.876 3.096,1.876 0.416,0 0.367,-0.094 0.844,-0.094 0.357,1.531 0.645,1.032 0.881,1.746 0.616,1.858 0.88,0.992 1.089,3.508 1.587,0.369 0.873,0.469 2.908,0.469 1.165,0 1.748,-0.446 2.252,-0.563 0,-0.391 0.116,-1.14 0.182,-1.506 0.094,-0.52 0.429,-0.795 0.787,-1.84 0.155,-0.451 0.102,-0.27 0.357,-0.581 0.452,-0.553 0.288,-0.686 0.55,-1.233 1.646,0 2.299,-0.193 3.307,-1.195 0.798,-0.793 0.923,-0.788 -0.276,-2.211 -0.831,-0.986 -0.509,-0.489 -1.132,-1.119 -1.795,-1.816 -1.81,-1.298 -3.025,-1.197 -0.141,0.606 -0.094,0.399 -0.094,1.126 0,0.427 0.323,0.352 0.645,0.283 0.329,-0.071 0.682,-0.155 0.95,-0.283 0.672,1.003 0.751,1.052 0.751,2.063 -1.6,-0.372 -0.439,-0.147 -1.623,0.074 -0.384,0.072 -0.618,-0.074 -1.098,-0.074 -0.466,0 -0.872,0.376 -1.219,0.376 -0.525,0 -0.657,-0.444 -0.657,-0.845 0,-1.246 1.075,-0.714 0.255,-3.163 -0.227,-0.676 -0.859,-0.683 -1.475,-0.683 -1.168,0 -1.029,0.806 -1.262,1.459 -0.108,0.303 -0.239,0.36 -0.239,0.699z"/>
 </g>
</svg>
